<svg xmlns="http://www.w3.org/2000/svg" viewBox="0 0 436 80.77"><defs><style>.cls-1{fill:#333;}.cls-2{fill:#feffff;}</style></defs><g id="Layer_2" data-name="Layer 2"><g id="Layer_1-2" data-name="Layer 1"><path class="cls-1" d="M73.7,30.05q.36-6,.31-11.88a1.9,1.9,0,0,1,.55-1.36L91,.43a1.32,1.32,0,0,1,.9-.38q11.9-.11,23.91,0a48,48,0,0,1,7.15.61c13.34,2.21,20.53,15.34,18,28.17A21.92,21.92,0,0,1,132,42.43a.39.39,0,0,0-.09.55v0l15.43,19.21c.45.56.67.48.67-.24V17.79a1.19,1.19,0,0,1,.36-.87L164.93.45A1.5,1.5,0,0,1,166,0h38.47a.42.42,0,0,1,.47.47V63a1.82,1.82,0,0,1-.57,1.36l-16,16a1.43,1.43,0,0,1-1.07.44H148.5a.44.44,0,0,1-.5-.5V64.72c0-.56-.2-.64-.6-.25L131.57,80.33a1.46,1.46,0,0,1-1,.42q-14.22,0-27.72,0a2,2,0,0,1-2.09-1.5c-.27-.78-.7-.87-1.29-.29L98,80.4a1.15,1.15,0,0,1-.82.34l-22.63,0a.48.48,0,0,1-.55-.55q0-20.34,0-40.15c0-2.41-.22-4.74-.25-7.2a.19.19,0,0,0,0-.12.08.08,0,0,0-.09,0,.39.39,0,0,0-.26.38c0,12.17-7,20.83-15.52,29.75q-5.64,5.92-11.71,11.3A25.62,25.62,0,0,1,28.65,80.7q-13.3.1-28.37.06c-.19,0-.28-.09-.28-.29V18.52a2.74,2.74,0,0,1,.81-1.95l16-16A1.69,1.69,0,0,1,18.07,0q12-.09,25,0A38.3,38.3,0,0,1,50.6.87C64.57,3.78,73.55,16.13,73.38,30a.13.13,0,0,0,.15.15h0C73.64,30.2,73.69,30.15,73.7,30.05ZM20,3V60.63a.43.43,0,0,0,.43.43h23.3A27.3,27.3,0,0,0,71,33.77h0V29.83A27.3,27.3,0,0,0,43.72,2.54H20.42A.43.43,0,0,0,20,3Zm92.79,47.12,7.38,10.4a1.23,1.23,0,0,0,1,.52h21.31a.12.12,0,0,0,.12-.12.11.11,0,0,0,0-.08L127.73,42.36c-.28-.34-.22-.62.17-.83,12-6.13,13.93-21.36,6.25-31.34C130.1,4.91,124.39,3,117.87,2.75q-11.59-.36-23.6-.22a.46.46,0,0,0-.52.53V60.51a.44.44,0,0,0,.5.5h17.12a.55.55,0,0,0,.63-.62V50.33C112,49.45,112.27,49.37,112.78,50.09Zm73.79-27.32a.35.35,0,0,1-.35-.35h0l0-2.31a.35.35,0,0,1,.35-.35h15.81a.35.35,0,0,0,.35-.35h0V2.86a.35.35,0,0,0-.35-.35h-34a.35.35,0,0,0-.35.35v57.8a.35.35,0,0,0,.35.35h34a.35.35,0,0,0,.35-.35h0V44.11a.35.35,0,0,0-.35-.35h-15.8a.35.35,0,0,1-.35-.35v-3a.35.35,0,0,1,.35-.35h15.27a.35.35,0,0,0,.35-.35V23.11a.35.35,0,0,0-.35-.35Z"/><path class="cls-1" d="M375.79,63.57l13.29-23.26c.21-.36.1-.55-.32-.55H376.3q-.53,0-.51.51v23.3L359.12,80.23a1.8,1.8,0,0,1-1.27.53q-11.33,0-21.68-.12c-.85,0-1.7,0-2.55,0q-7.37.15-14.85.1a7.61,7.61,0,0,1-2-.28c-1-.28-1.92.27-2.92.27q-10.55,0-21.26,0a.48.48,0,0,1-.55-.55V64.05c0-.61-.22-.7-.65-.27L274.82,80.32a1.42,1.42,0,0,1-1.06.44h-25a.67.67,0,0,1-.7-.5l-2.25-6.45a.75.75,0,0,0-.76-.55h-5a1.41,1.41,0,0,0-1,.44l-6.51,6.74a1,1,0,0,1-.75.32H206.46a.24.24,0,0,1-.24-.23.29.29,0,0,1,0-.09q12-29.58,24.25-60.7a11.6,11.6,0,0,1,2.66-4.06Q241,8,248.42.44a1.46,1.46,0,0,1,1-.43h16.87a.45.45,0,0,1,.45.3l24.46,61.55q.78,1.95.78-.15V18.21a2,2,0,0,1,.59-1.42L308.52.86A2.91,2.91,0,0,1,310.57,0h24.75a.73.73,0,0,1,.76.56l2.74,9a.39.39,0,0,0,.48.26.34.34,0,0,0,.16-.1L348.68.45A1.5,1.5,0,0,1,349.74,0h25.51a.5.5,0,0,1,.5.5V15.79c0,.51.18.58.53.22L391.5.82a2.8,2.8,0,0,1,2-.81h42a.5.5,0,0,1,.49.5V17a4.37,4.37,0,0,1-.56,2.16l-12,21.55c-.21.38-.1.57.34.57H435.5a.45.45,0,0,1,.5.51V63a1.77,1.77,0,0,1-.52,1.25l-16,16a1.73,1.73,0,0,1-1.25.52H375.5a.5.5,0,0,1-.5-.5V66a2.44,2.44,0,0,1,.19-1ZM355.68,39a31,31,0,0,1,0,4.82c-.4,5.49-.21,11.08-.21,16.64A.48.48,0,0,0,356,61h17a.22.22,0,0,0,.25-.25V3a.44.44,0,0,0-.5-.5H351.5a.43.43,0,0,0-.4.3l-8.18,27.42c-.21.7-.43.7-.64,0l-8.16-27a.86.86,0,0,0-.9-.67H312.5a.44.44,0,0,0-.5.5v57.5a.44.44,0,0,0,.5.5h16.67a.58.58,0,0,0,.65-.67L329.46,40c0-1.76.19-1.8.68-.1L336,60.21a.68.68,0,0,0,.73.55h11.85a.69.69,0,0,0,.72-.54L355.33,39C355.51,38.34,355.63,38.36,355.68,39Zm63.54,4.76a.34.34,0,0,1-.34-.35.33.33,0,0,1,0-.17q7.27-13,14-24.87a6.64,6.64,0,0,0,.84-3.41q-.11-5.94,0-11.76a.6.6,0,0,0-.67-.69H395.5A.45.45,0,0,0,395,3v16.5a.44.44,0,0,0,.51.5h15.26a.35.35,0,0,1,.34.36.29.29,0,0,1,0,.16L395.85,47.29a7,7,0,0,0-.93,3.67q.15,4.89,0,9.45a.52.52,0,0,0,.58.6h37.69a.47.47,0,0,0,.47-.47h0V44.36a.53.53,0,0,0-.6-.6Zm-154.5,9.5a.35.35,0,0,1,.33.24l2.42,7.27a.34.34,0,0,0,.33.24h19.73a.34.34,0,0,0,.33-.48L265,3a.36.36,0,0,0-.33-.22H251a.36.36,0,0,0-.33.22L227.5,60.54a.36.36,0,0,0,.19.46l.14,0,19.42,0a.34.34,0,0,0,.32-.23l2.66-7.28a.37.37,0,0,1,.32-.23Z"/><path class="cls-2" d="M20,3a.43.43,0,0,1,.43-.43h23.3A27.3,27.3,0,0,1,71,29.83v3.94A27.3,27.3,0,0,1,43.72,61.06H20.42a.43.43,0,0,1-.43-.43h0ZM38.76,20.15l0,23.28a.42.42,0,0,0,.42.42h3.42c5.29,0,9.59-4.66,9.6-10.43V30.2c0-5.77-4.27-10.45-9.56-10.46H39.18a.42.42,0,0,0-.42.42Z"/><path class="cls-2" d="M112.78,50.09c-.51-.72-.77-.64-.77.24V60.39a.55.55,0,0,1-.63.62H94.25a.44.44,0,0,1-.5-.5V3.06a.46.46,0,0,1,.52-.53q12-.15,23.6.22c6.52.21,12.23,2.16,16.28,7.44,7.68,10,5.8,25.21-6.25,31.34-.39.21-.45.49-.17.83l14.84,18.45a.12.12,0,0,1,0,.17.11.11,0,0,1-.08,0H121.17a1.23,1.23,0,0,1-1-.52Zm-.51-30,0,8.82a.29.29,0,0,0,.3.3h3.15A4.55,4.55,0,0,0,120.51,25h0v-1a4.55,4.55,0,0,0-4.79-4.24h-3.15a.3.3,0,0,0-.3.3Z"/><path class="cls-2" d="M186.57,22.77h15.26a.35.35,0,0,1,.35.35V39.66a.35.35,0,0,1-.35.35H186.55a.35.35,0,0,0-.35.35h0v3a.35.35,0,0,0,.35.35h15.8a.35.35,0,0,1,.35.35h0V60.66a.35.35,0,0,1-.35.35h-34a.35.35,0,0,1-.35-.35V2.86a.35.35,0,0,1,.35-.35h34a.35.35,0,0,1,.35.35h0V19.41a.35.35,0,0,1-.35.35H186.55a.35.35,0,0,0-.35.35h0l0,2.31a.35.35,0,0,0,.35.35Z"/><path class="cls-2" d="M355.68,39c-.05-.64-.17-.66-.35,0l-6.07,21.26a.69.69,0,0,1-.72.54H336.69a.68.68,0,0,1-.73-.55l-5.82-20.33c-.49-1.7-.71-1.66-.68.1l.36,20.36a.58.58,0,0,1-.65.67H312.5a.44.44,0,0,1-.5-.5V3a.44.44,0,0,1,.5-.5h20.72a.86.86,0,0,1,.9.67l8.16,27.05c.21.7.43.7.64,0L351.1,2.81a.43.43,0,0,1,.4-.3h21.25a.44.44,0,0,1,.5.5V60.76A.22.22,0,0,1,373,61H356a.48.48,0,0,1-.55-.55c0-5.56-.19-11.15.21-16.64A31,31,0,0,0,355.68,39Z"/><path class="cls-2" d="M419.22,43.76H433.1a.53.53,0,0,1,.6.6V60.54a.47.47,0,0,1-.47.47H395.53a.52.52,0,0,1-.58-.6q.12-4.56,0-9.45a7,7,0,0,1,.93-3.67l15.21-26.76a.35.35,0,0,0-.14-.47.3.3,0,0,0-.16,0H395.5a.44.44,0,0,1-.51-.5V3a.45.45,0,0,1,.51-.5h37.57a.6.6,0,0,1,.67.69q-.11,5.82,0,11.76a6.64,6.64,0,0,1-.84,3.41q-6.7,11.9-14,24.87a.36.36,0,0,0,.14.48A.29.29,0,0,0,419.22,43.76Z"/><path class="cls-2" d="M264.72,53.26H250.55a.37.37,0,0,0-.32.23l-2.66,7.28a.34.34,0,0,1-.32.23l-19.42,0a.34.34,0,0,1-.33-.48L250.67,3a.36.36,0,0,1,.33-.22h13.65A.36.36,0,0,1,265,3l22.88,57.55a.36.36,0,0,1-.19.46l-.14,0H267.8a.34.34,0,0,1-.33-.24l-2.42-7.27A.35.35,0,0,0,264.72,53.26Zm-8.88-16.44a.35.35,0,0,0,.24.44h.09l3.11,0a.34.34,0,0,0,.35-.34.21.21,0,0,0,0-.11L258,31.6a.35.35,0,0,0-.44-.23.33.33,0,0,0-.23.23Z"/><path class="cls-1" d="M38.76,20.15a.42.42,0,0,1,.42-.42H42.6c5.29,0,9.57,4.69,9.56,10.46v3.22c0,5.77-4.31,10.44-9.6,10.43H39.14a.42.42,0,0,1-.42-.42h0Z"/><path class="cls-1" d="M112.27,20.11a.3.3,0,0,1,.3-.3h3.15a4.55,4.55,0,0,1,4.79,4.24v1a4.54,4.54,0,0,1-4.82,4.22h-3.16a.29.29,0,0,1-.3-.3Z"/><path class="cls-1" d="M255.84,36.82l1.53-5.22a.35.35,0,0,1,.44-.23.33.33,0,0,1,.23.23l1.58,5.2a.35.35,0,0,1-.24.44h-.1l-3.11,0a.36.36,0,0,1-.33-.45Z"/><path class="cls-2" d="M375.79,63.57V40.27q0-.51.51-.51h12.46c.42,0,.53.19.32.55Z"/></g></g></svg>